<svg width="18" height="18" viewBox="0 0 18 18" fill="none" xmlns="http://www.w3.org/2000/svg">
<path d="M12.2085 1.5C13.0755 1.5 13.7782 2.19525 13.7782 3.0525V12.4283C13.7843 12.5719 13.8458 12.7076 13.9499 12.8068C14.054 12.906 14.1925 12.9609 14.3363 12.96C14.4799 12.9607 14.6182 12.9057 14.7221 12.8065C14.8261 12.7074 14.8875 12.5718 14.8935 12.4283V6.82425C14.8946 6.62136 14.9356 6.42066 15.0143 6.23363C15.0929 6.04659 15.2076 5.87688 15.3518 5.73418C15.4961 5.59148 15.667 5.47859 15.8549 5.40194C16.0427 5.3253 16.2439 5.28641 16.4468 5.2875C16.6497 5.28641 16.8509 5.32533 17.0388 5.40202C17.2267 5.4787 17.3977 5.59167 17.5419 5.73445C17.6862 5.87723 17.8009 6.04703 17.8795 6.23415C17.9581 6.42127 17.999 6.62204 18 6.825V11.7458C17.9992 11.8747 17.9473 11.9981 17.8556 12.0888C17.7639 12.1795 17.64 12.2301 17.511 12.2295C17.4471 12.2299 17.3837 12.2177 17.3245 12.1936C17.2653 12.1695 17.2114 12.134 17.1659 12.0891C17.1205 12.0441 17.0843 11.9907 17.0594 11.9318C17.0346 11.8729 17.0216 11.8097 17.0212 11.7458V6.825C17.0209 6.74995 17.0057 6.67571 16.9766 6.60652C16.9475 6.53734 16.9051 6.47456 16.8517 6.42177C16.7984 6.36898 16.7352 6.32721 16.6657 6.29885C16.5962 6.2705 16.5218 6.25611 16.4468 6.2565C16.3717 6.25611 16.2973 6.2705 16.2278 6.29885C16.1583 6.32721 16.0951 6.36898 16.0418 6.42177C15.9884 6.47456 15.946 6.53734 15.9169 6.60652C15.8878 6.67571 15.8726 6.74995 15.8722 6.825V12.429C15.8712 12.6296 15.8306 12.8281 15.7528 13.013C15.675 13.198 15.5616 13.3658 15.419 13.5069C15.2763 13.648 15.1073 13.7596 14.9215 13.8354C14.7358 13.9111 14.5369 13.9496 14.3363 13.9485C14.1356 13.9496 13.9367 13.9111 13.751 13.8354C13.5652 13.7596 13.3962 13.648 13.2535 13.5069C13.1109 13.3658 12.9975 13.198 12.9197 13.013C12.8419 12.8281 12.8013 12.6296 12.8002 12.429V3.054C12.794 2.90166 12.729 2.75767 12.6187 2.65234C12.5085 2.54701 12.3617 2.48854 12.2092 2.48925C12.0568 2.48834 11.9099 2.54661 11.7995 2.65181C11.6892 2.757 11.6239 2.90091 11.6175 3.05325L11.6168 14.9813C11.6144 15.3863 11.4512 15.7738 11.1632 16.0586C10.8752 16.3434 10.4858 16.5022 10.0807 16.5C9.88012 16.5011 9.68124 16.4626 9.49547 16.3869C9.3097 16.3111 9.14068 16.1995 8.99804 16.0584C8.85541 15.9173 8.74197 15.7495 8.66419 15.5645C8.58642 15.3796 8.54583 15.1811 8.54475 14.9805V13.53C8.54475 13.263 8.76375 13.0463 9.03375 13.0463C9.30375 13.0463 9.52275 13.263 9.52275 13.53V14.9805C9.52275 15.1778 9.62925 15.36 9.80175 15.459C9.97425 15.5573 10.1873 15.5573 10.3597 15.459C10.4444 15.411 10.5148 15.3415 10.5638 15.2574C10.6128 15.1733 10.6387 15.0778 10.6388 14.9805V3.0525C10.6388 2.19525 11.3415 1.5 12.2085 1.5ZM7.953 1.5C8.82 1.5 9.52275 2.19525 9.52275 3.0525V11.6948C9.52246 11.7586 9.50957 11.8218 9.48483 11.8807C9.46008 11.9396 9.42397 11.9931 9.37855 12.038C9.33313 12.0829 9.2793 12.1185 9.22014 12.1426C9.16097 12.1667 9.09764 12.1789 9.03375 12.1785C8.96986 12.1789 8.90653 12.1667 8.84736 12.1426C8.7882 12.1185 8.73437 12.0829 8.68895 12.038C8.64353 11.9931 8.60742 11.9396 8.58268 11.8807C8.55793 11.8218 8.54504 11.7586 8.54475 11.6948V3.0525C8.54376 2.89648 8.48088 2.74724 8.36993 2.63755C8.25897 2.52786 8.10902 2.4667 7.953 2.4675C7.79698 2.4667 7.64703 2.52786 7.53607 2.63755C7.42512 2.74724 7.36224 2.89648 7.36125 3.0525V13.5623C7.35887 13.9718 7.19401 14.3636 6.9029 14.6516C6.6118 14.9396 6.21825 15.1002 5.80875 15.0983C5.39912 15.1004 5.00538 14.9399 4.71411 14.6518C4.42284 14.3638 4.25788 13.9719 4.2555 13.5623V6.825C4.25511 6.74995 4.23994 6.67571 4.21085 6.60652C4.18177 6.53734 4.13934 6.47456 4.08599 6.42177C4.03265 6.36898 3.96942 6.32721 3.89993 6.29885C3.83044 6.2705 3.75605 6.25611 3.681 6.2565C3.60595 6.25611 3.53156 6.2705 3.46207 6.29885C3.39258 6.32721 3.32936 6.36898 3.27601 6.42177C3.22266 6.47456 3.18023 6.53734 3.15115 6.60652C3.12206 6.67571 3.10689 6.74995 3.1065 6.825V9.675C3.10542 9.87789 3.06439 10.0786 2.98574 10.2656C2.9071 10.4527 2.79239 10.6224 2.64815 10.7651C2.50392 10.9078 2.33299 11.0207 2.14513 11.0973C1.95726 11.1739 1.75614 11.2128 1.55325 11.2118C1.35036 11.2128 1.14924 11.1739 0.961373 11.0973C0.773509 11.0207 0.60258 10.9078 0.458347 10.7651C0.314114 10.6224 0.199401 10.4527 0.120757 10.2656C0.042114 10.0786 0.00108052 9.87789 0 9.675L0 8.6415C0 8.37375 0.219 8.157 0.489 8.157C0.759 8.157 0.97875 8.3745 0.97875 8.6415V9.675C0.97875 9.9885 1.236 10.2428 1.55325 10.2428C1.8705 10.2428 2.12775 9.9885 2.12775 9.675V6.82425C2.13013 6.41475 2.29499 6.02295 2.5861 5.73493C2.8772 5.44692 3.27075 5.28626 3.68025 5.28825C4.08988 5.28606 4.48362 5.44663 4.77489 5.73466C5.06616 6.0227 5.23112 6.41462 5.2335 6.82425V13.5623C5.2335 13.8765 5.49075 14.1308 5.80875 14.1308C6.126 14.1308 6.38325 13.8765 6.38325 13.5623V3.0525C6.38325 2.19525 7.086 1.5 7.953 1.5Z" fill="white"/>
<path d="M12.2085 1.5C13.0755 1.5 13.7782 2.19525 13.7782 3.0525V12.4283C13.7843 12.5719 13.8458 12.7076 13.9499 12.8068C14.054 12.906 14.1925 12.9609 14.3363 12.96C14.4799 12.9607 14.6182 12.9057 14.7221 12.8065C14.8261 12.7074 14.8875 12.5718 14.8935 12.4283V6.82425C14.8946 6.62136 14.9356 6.42066 15.0143 6.23363C15.0929 6.04659 15.2076 5.87688 15.3518 5.73418C15.4961 5.59148 15.667 5.47859 15.8549 5.40194C16.0427 5.3253 16.2439 5.28641 16.4468 5.2875C16.6497 5.28641 16.8509 5.32533 17.0388 5.40202C17.2267 5.4787 17.3977 5.59167 17.5419 5.73445C17.6862 5.87723 17.8009 6.04703 17.8795 6.23415C17.9581 6.42127 17.999 6.62204 18 6.825V11.7458C17.9992 11.8747 17.9473 11.9981 17.8556 12.0888C17.7639 12.1795 17.64 12.2301 17.511 12.2295C17.4471 12.2299 17.3837 12.2177 17.3245 12.1936C17.2653 12.1695 17.2114 12.134 17.1659 12.0891C17.1205 12.0441 17.0843 11.9907 17.0594 11.9318C17.0346 11.8729 17.0216 11.8097 17.0212 11.7458V6.825C17.0209 6.74995 17.0057 6.67571 16.9766 6.60652C16.9475 6.53734 16.9051 6.47456 16.8517 6.42177C16.7984 6.36898 16.7352 6.32721 16.6657 6.29885C16.5962 6.2705 16.5218 6.25611 16.4468 6.2565C16.3717 6.25611 16.2973 6.2705 16.2278 6.29885C16.1583 6.32721 16.0951 6.36898 16.0418 6.42177C15.9884 6.47456 15.946 6.53734 15.9169 6.60652C15.8878 6.67571 15.8726 6.74995 15.8722 6.825V12.429C15.8712 12.6296 15.8306 12.8281 15.7528 13.013C15.675 13.198 15.5616 13.3658 15.419 13.5069C15.2763 13.648 15.1073 13.7596 14.9215 13.8354C14.7358 13.9111 14.5369 13.9496 14.3363 13.9485C14.1356 13.9496 13.9367 13.9111 13.751 13.8354C13.5652 13.7596 13.3962 13.648 13.2535 13.5069C13.1109 13.3658 12.9975 13.198 12.9197 13.013C12.8419 12.8281 12.8013 12.6296 12.8002 12.429V3.054C12.794 2.90166 12.729 2.75767 12.6187 2.65234C12.5085 2.54701 12.3617 2.48854 12.2092 2.48925C12.0568 2.48834 11.9099 2.54661 11.7995 2.65181C11.6892 2.757 11.6239 2.90091 11.6175 3.05325L11.6168 14.9813C11.6144 15.3863 11.4512 15.7738 11.1632 16.0586C10.8752 16.3434 10.4858 16.5022 10.0807 16.5C9.88012 16.5011 9.68124 16.4626 9.49547 16.3869C9.3097 16.3111 9.14068 16.1995 8.99804 16.0584C8.85541 15.9173 8.74197 15.7495 8.66419 15.5645C8.58642 15.3796 8.54583 15.1811 8.54475 14.9805V13.53C8.54475 13.263 8.76375 13.0463 9.03375 13.0463C9.30375 13.0463 9.52275 13.263 9.52275 13.53V14.9805C9.52275 15.1778 9.62925 15.36 9.80175 15.459C9.97425 15.5573 10.1873 15.5573 10.3597 15.459C10.4444 15.411 10.5148 15.3415 10.5638 15.2574C10.6128 15.1733 10.6387 15.0778 10.6388 14.9805V3.0525C10.6388 2.19525 11.3415 1.5 12.2085 1.5ZM7.953 1.5C8.82 1.5 9.52275 2.19525 9.52275 3.0525V11.6948C9.52246 11.7586 9.50957 11.8218 9.48483 11.8807C9.46008 11.9396 9.42397 11.9931 9.37855 12.038C9.33313 12.0829 9.2793 12.1185 9.22014 12.1426C9.16097 12.1667 9.09764 12.1789 9.03375 12.1785C8.96986 12.1789 8.90653 12.1667 8.84736 12.1426C8.7882 12.1185 8.73437 12.0829 8.68895 12.038C8.64353 11.9931 8.60742 11.9396 8.58268 11.8807C8.55793 11.8218 8.54504 11.7586 8.54475 11.6948V3.0525C8.54376 2.89648 8.48088 2.74724 8.36993 2.63755C8.25897 2.52786 8.10902 2.4667 7.953 2.4675C7.79698 2.4667 7.64703 2.52786 7.53607 2.63755C7.42512 2.74724 7.36224 2.89648 7.36125 3.0525V13.5623C7.35887 13.9718 7.19401 14.3636 6.9029 14.6516C6.6118 14.9396 6.21825 15.1002 5.80875 15.0983C5.39912 15.1004 5.00538 14.9399 4.71411 14.6518C4.42284 14.3638 4.25788 13.9719 4.2555 13.5623V6.825C4.25511 6.74995 4.23994 6.67571 4.21085 6.60652C4.18177 6.53734 4.13934 6.47456 4.08599 6.42177C4.03265 6.36898 3.96942 6.32721 3.89993 6.29885C3.83044 6.2705 3.75605 6.25611 3.681 6.2565C3.60595 6.25611 3.53156 6.2705 3.46207 6.29885C3.39258 6.32721 3.32936 6.36898 3.27601 6.42177C3.22266 6.47456 3.18023 6.53734 3.15115 6.60652C3.12206 6.67571 3.10689 6.74995 3.1065 6.825V9.675C3.10542 9.87789 3.06439 10.0786 2.98574 10.2656C2.9071 10.4527 2.79239 10.6224 2.64815 10.7651C2.50392 10.9078 2.33299 11.0207 2.14513 11.0973C1.95726 11.1739 1.75614 11.2128 1.55325 11.2118C1.35036 11.2128 1.14924 11.1739 0.961373 11.0973C0.773509 11.0207 0.60258 10.9078 0.458347 10.7651C0.314114 10.6224 0.199401 10.4527 0.120757 10.2656C0.042114 10.0786 0.00108052 9.87789 0 9.675L0 8.6415C0 8.37375 0.219 8.157 0.489 8.157C0.759 8.157 0.97875 8.3745 0.97875 8.6415V9.675C0.97875 9.9885 1.236 10.2428 1.55325 10.2428C1.8705 10.2428 2.12775 9.9885 2.12775 9.675V6.82425C2.13013 6.41475 2.29499 6.02295 2.5861 5.73493C2.8772 5.44692 3.27075 5.28626 3.68025 5.28825C4.08988 5.28606 4.48362 5.44663 4.77489 5.73466C5.06616 6.0227 5.23112 6.41462 5.2335 6.82425V13.5623C5.2335 13.8765 5.49075 14.1308 5.80875 14.1308C6.126 14.1308 6.38325 13.8765 6.38325 13.5623V3.0525C6.38325 2.19525 7.086 1.5 7.953 1.5Z" fill="url(#paint0_linear_207_692)"/>
<defs>
<linearGradient id="paint0_linear_207_692" x1="18" y1="9.00001" x2="0" y2="9.00001" gradientUnits="userSpaceOnUse">
<stop stop-color="#FE603C"/>
<stop offset="1" stop-color="#E2167E"/>
</linearGradient>
</defs>
</svg>
