<svg width="512" height="512" viewBox="0 0 512 512" fill="none" xmlns="http://www.w3.org/2000/svg">
<path fill-rule="evenodd" clip-rule="evenodd" d="M196.344 47.1835L184.803 58.8066V98.0606V137.313L217.725 170.326L250.646 203.338H255.983H261.322L293.634 170.905L325.947 138.472V97.9999V57.5262L314.673 46.2637L303.399 35L279.683 58.7697L255.968 82.5394L232.532 59.0505C219.642 46.1304 208.823 35.5604 208.491 35.5604C208.159 35.5604 202.692 40.7913 196.344 47.1835ZM208.524 89.7264V127.804L229.281 148.602L250.037 169.401V131.323V93.2462L229.281 72.4477L208.524 51.6493V89.7264ZM282.358 72.744L261.898 93.2962V131.357V169.417L282.671 148.577L303.446 127.736L303.131 89.9644L302.818 52.1918L282.358 72.744ZM63.4698 87.6691C55.8219 95.5272 56.2572 96.4221 78.6481 118.854C89.4118 129.637 98.2185 138.996 98.2185 139.652C98.2185 140.306 89.5518 149.548 78.9577 160.191L59.698 179.54H80.1438H100.591V200.053V220.564L119.878 201.243C130.486 190.614 139.695 181.92 140.343 181.92C140.991 181.92 163.541 204.015 190.453 231.02L239.385 280.121L229.892 289.589L220.398 299.057L214.127 292.844C205.992 284.785 201.69 284.4 195.125 291.144C188.735 297.71 189.12 300.992 197.254 309.238L203.775 315.849L195.104 324.49L186.431 333.132L179.462 328.921C165.277 320.353 150.603 316.819 133.752 317.915C101.652 320.001 74.364 341.033 63.3678 372.165C60.0527 381.55 59.749 383.682 59.787 397.294C59.8226 410.144 60.2579 413.462 62.9811 421.687C67.5487 435.481 73.695 445.047 84.728 455.53C100.728 470.736 116.533 476.967 139.186 477C161.563 477.033 179.184 469.736 194.969 453.899C210.658 438.16 218.419 419.386 218.365 397.294C218.329 381.525 213.717 365.807 205.363 352.974L203.237 349.707L212.076 340.78L220.914 331.853L227.504 338.395C235.809 346.64 239.224 347.022 245.645 340.425C252.036 333.859 251.65 330.578 243.517 322.333L236.998 315.723L246.483 306.262L255.968 296.802L265.453 306.262L274.938 315.723L268.418 322.333C260.201 330.663 259.82 334.09 266.396 340.531C272.941 346.943 276.212 346.556 284.431 338.395L291.021 331.853L299.86 340.78L308.699 349.707L306.577 352.974C297.713 366.622 293.539 381.295 293.631 398.484C293.747 420.361 301.142 437.876 317.037 453.914C332.699 469.719 350.35 477.033 372.75 477C396.166 476.965 412.619 470.085 429.271 453.365C437.568 445.033 440.394 441.205 444.316 432.991C455.666 409.208 455.588 385.568 444.08 362.191C431.068 335.76 406.462 319.541 376.948 317.943C361.721 317.119 351.013 319.471 336.4 326.85L324.91 332.651L316.527 324.183L308.142 315.716L314.673 309.246C322.932 301.063 323.327 297.526 316.705 291.038C309.997 284.467 305.865 284.862 297.808 292.844L291.537 299.057L282.044 289.589L272.55 280.121L321.482 231.02C348.395 204.015 370.944 181.92 371.592 181.92C372.241 181.92 381.45 190.614 392.058 201.243L411.345 220.564V200.053V179.54H431.792H452.237L432.978 160.191C422.384 149.548 413.717 140.306 413.717 139.652C413.717 138.996 422.524 129.637 433.287 118.854C455.777 96.3233 456.265 95.3083 448.36 87.5632C444.929 84.2017 442.89 83.1569 439.763 83.1569C435.917 83.1569 430.153 88.6864 345.816 173.29L255.968 263.423L166.119 173.29C80.91 87.8119 76.053 83.1569 72.0653 83.1569C68.7621 83.1569 66.9213 84.1231 63.4698 87.6691ZM127.182 331.726C116.111 336.771 109.154 348.868 110.426 360.867C110.78 364.213 111.461 367.949 111.94 369.17C112.698 371.104 112.442 371.257 109.962 370.36C108.396 369.794 103.378 369.357 98.8115 369.389C89.6016 369.452 85.3032 371.167 79.3325 377.157C73.8729 382.634 71.8305 387.411 71.2386 396.094C70.7737 402.912 71.12 404.619 74.1362 410.361C80.4747 422.425 92.4067 428.311 105.482 425.823C108.874 425.178 111.832 424.834 112.055 425.058C112.28 425.282 111.856 427.209 111.116 429.339C110.359 431.516 110.063 436.055 110.438 439.702C111.711 452.083 120.548 462.214 132.602 465.115C140.249 466.956 146.39 465.824 154.053 461.163C164.989 454.512 169.718 441.888 166.548 427.809C165.519 423.241 165.526 423.228 168.339 424.747C169.892 425.587 174.436 426.247 178.436 426.213C199.828 426.035 213.549 403.415 203.843 384.328C197.771 372.389 181.535 365.517 169.889 369.959C168.125 370.631 166.49 370.988 166.253 370.753C166.019 370.516 166.418 367.361 167.143 363.742C168.238 358.272 168.119 355.979 166.443 350.156C161.714 333.732 142.537 324.73 127.182 331.726ZM362.753 331.026C360.49 331.75 356.135 334.775 353.074 337.747C345.691 344.918 342.826 353.913 344.792 363.742C345.517 367.361 345.917 370.516 345.682 370.753C345.446 370.988 343.81 370.631 342.047 369.959C330.4 365.517 314.164 372.389 308.093 384.328C297.179 405.788 316.515 431.038 339.844 425.793C342.81 425.127 345.459 424.802 345.728 425.071C345.997 425.341 345.606 427.996 344.86 430.969C340.991 446.382 352.815 463.122 369.453 465.791C379.971 467.478 393.431 460.41 398.433 450.573C401.462 444.616 402.602 434.471 400.82 429.339C400.079 427.209 399.706 425.233 399.989 424.947C400.274 424.663 403.212 425.011 406.519 425.723C419.298 428.472 431.645 422.42 437.83 410.374C440.755 404.681 441.121 402.841 440.678 396.094C440.107 387.42 438.07 382.641 432.603 377.157C426.632 371.167 422.334 369.452 413.124 369.389C408.558 369.357 403.6 369.775 402.106 370.318C399.574 371.239 399.454 371.079 400.327 367.939C401.946 362.114 401.287 349.396 399.157 345.361C396.318 339.986 390.2 334.209 384.684 331.695C379.336 329.258 369.247 328.951 362.753 331.026Z" fill="#DC3606"/>
</svg>
