<svg width="24" height="24" viewBox="0 0 24 24" fill="none" xmlns="http://www.w3.org/2000/svg">
<path d="M18.9419 5.34C17.6473 4.714 16.263 4.25905 14.8157 4C14.638 4.33209 14.4304 4.77877 14.2872 5.1341C12.7487 4.89499 11.2245 4.89499 9.7143 5.1341C9.57116 4.77877 9.3588 4.33209 9.17947 4C7.73067 4.25905 6.3448 4.71567 5.05016 5.34331C2.43887 9.42136 1.73099 13.3981 2.08493 17.3184C3.81688 18.655 5.49534 19.467 7.14548 19.9984C7.55291 19.4189 7.91628 18.8028 8.22931 18.1536C7.63313 17.9195 7.06211 17.6306 6.52256 17.2952C6.6657 17.1856 6.80571 17.071 6.94098 16.9531C10.2318 18.5438 13.8074 18.5438 17.0589 16.9531C17.1958 17.071 17.3358 17.1856 17.4774 17.2952C16.9362 17.6322 16.3637 17.9211 15.7675 18.1553C16.0805 18.8028 16.4423 19.4205 16.8513 20C18.503 19.4687 20.183 18.6567 21.915 17.3184C22.3303 12.7738 21.2056 8.83355 18.9419 5.34ZM8.67765 14.9075C7.68977 14.9075 6.87963 13.9543 6.87963 12.7937C6.87963 11.6331 7.67247 10.6783 8.67765 10.6783C9.68285 10.6783 10.493 11.6314 10.4757 12.7937C10.4772 13.9543 9.68285 14.9075 8.67765 14.9075ZM15.3223 14.9075C14.3344 14.9075 13.5243 13.9543 13.5243 12.7937C13.5243 11.6331 14.3171 10.6783 15.3223 10.6783C16.3275 10.6783 17.1376 11.6314 17.1203 12.7937C17.1203 13.9543 16.3275 14.9075 15.3223 14.9075Z" fill="#5865F2"/>
</svg>
