<svg width="24" height="24" viewBox="0 0 24 24" fill="none" xmlns="http://www.w3.org/2000/svg">
<path d="M3.50809 2.45724V21.5428H4.82683V22H3V2H4.82683V2.45724H3.50809Z" fill="white"/>
<path d="M20.4919 21.5428V2.45724H19.1732V2H21V22H19.1732V21.5428H20.4919Z" fill="white"/>
<path d="M3.50809 2.45724V21.5428H4.82683V22H3V2H4.82683V2.45724H3.50809Z" fill="white"/>
<path d="M8.59467 9.25895V10.2269H8.62321C8.86869 9.85871 9.17126 9.57367 9.5195 9.37177C9.86774 9.16987 10.2674 9.06892 10.7184 9.06892C11.1522 9.06892 11.5461 9.158 11.9058 9.33021C12.2655 9.50242 12.5338 9.8112 12.7222 10.2566C12.9277 9.94185 13.2017 9.66869 13.55 9.43116C13.8982 9.19363 14.3149 9.07486 14.7888 9.07486C15.1541 9.07486 15.4853 9.12237 15.7992 9.21144C16.1075 9.30051 16.3758 9.44897 16.5928 9.65087C16.8154 9.85277 16.9867 10.12 17.1123 10.4466C17.2379 10.7732 17.3007 11.1651 17.3007 11.6283V16.4027H15.4167V12.3587C15.4167 12.1212 15.4053 11.8955 15.3882 11.6818C15.3711 11.468 15.3197 11.2839 15.2398 11.1295C15.1598 10.9751 15.0457 10.8504 14.8858 10.7554C14.7317 10.6663 14.5205 10.6188 14.2578 10.6188C13.9952 10.6188 13.7783 10.6722 13.6127 10.7791C13.4472 10.886 13.3216 11.0226 13.2303 11.1948C13.1389 11.367 13.0761 11.557 13.0419 11.7768C13.0133 11.9905 12.9962 12.2103 12.9962 12.43V16.4027H11.1123V12.4003C11.1123 12.1865 11.1066 11.9787 11.1009 11.7708C11.0894 11.563 11.0552 11.373 10.9867 11.2008C10.9182 11.0285 10.8097 10.886 10.6556 10.7791C10.5014 10.6722 10.2731 10.6188 9.9705 10.6188C9.87916 10.6188 9.76498 10.6366 9.61655 10.6782C9.46812 10.7198 9.33111 10.797 9.1941 10.9098C9.05709 11.0226 8.9372 11.1889 8.84015 11.4086C8.7431 11.6224 8.69172 11.9074 8.69172 12.2578V16.3967H6.8078V9.25895H8.59467Z" fill="white"/>
<path d="M20.4919 21.5428V2.45724H19.1732V2H21V22H19.1732V21.5428H20.4919Z" fill="white"/>
</svg>
