<svg width="24" height="24" viewBox="0 0 24 24" fill="none" xmlns="http://www.w3.org/2000/svg">
<path d="M8.5 22.5c1.933 0 3.5-1.567 3.5-3.5v-3.5H8.5C6.567 15.5 5 17.067 5 19s1.567 3.5 3.5 3.5z" fill="#0ACF83"/>
<path d="M5 12c0-1.933 1.567-3.5 3.5-3.5H12v7H8.5C6.567 15.5 5 13.933 5 12z" fill="#A259FF"/>
<path d="M5 5c0-1.933 1.567-3.5 3.5-3.5H12v7H8.5C6.567 8.5 5 6.933 5 5z" fill="#F24E1E"/>
<path d="M12 1.5h3.5c1.933 0 3.5 1.567 3.5 3.5s-1.567 3.5-3.5 3.5H12V1.5z" fill="#FF7262"/>
<path d="M19 12c0 1.933-1.567 3.5-3.5 3.5S12 13.933 12 12s1.567-3.5 3.5-3.5S19 10.067 19 12z" fill="#1ABCFE"/>
</svg>
