<svg width="24" height="24" viewBox="0 0 24 24" fill="none" xmlns="http://www.w3.org/2000/svg">
<path d="M4.459 4.208c.746.606 1.026.56 2.428.466l13.215-.793c.28 0 .047-.28-.046-.326L18.42 2.21c-.42-.327-.98-.7-2.054-.607L3.67 2.72c-.467.046-.56.28-.373.466l1.162 1.022zm.793 1.96v13.89c0 .747.373 1.027 1.214.98l14.523-.84c.84-.046.933-.56.933-1.167V5.286c0-.606-.233-.933-.747-.886l-15.177.886c-.56.047-.746.327-.746.886zm14.337.745c.093.42 0 .84-.42.886l-.7.14v10.264c-.606.327-1.166.514-1.633.514-.746 0-.933-.233-1.493-.933l-4.57-7.178v6.953l1.446.327s0 .84-1.166.84l-3.22.187c-.093-.187 0-.654.327-.747l.84-.233V8.24l-1.166-.093c-.093-.42.14-1.027.793-1.073l3.453-.234 4.757 7.272V7.755l-1.213-.14c-.093-.514.28-.886.746-.933l3.22-.187z" fill="#fff"/>
</svg>
