<svg width="24" height="24" viewBox="0 0 24 24" fill="none" xmlns="http://www.w3.org/2000/svg">
<path d="M16.934 20.5718C16.8111 21.4843 15.9181 22.197 15.0307 21.951C13.7663 21.6026 12.3023 21.0593 10.985 20.9581C10.8113 20.9448 8.96608 20.8049 8.96608 20.8049C8.63967 20.7816 8.33331 20.639 8.10534 20.4043L4.62651 16.8222C4.24633 16.4308 4.14342 15.8471 4.36682 15.3493C4.36682 15.3493 6.51793 10.6223 6.59782 10.3764C6.67772 10.1306 6.97092 7.98661 7.14467 6.83483C7.19073 6.5296 7.34143 6.24979 7.57096 6.04335L11.6863 2.34179C12.2589 1.82683 13.1476 1.90314 13.6239 2.50816L17.081 6.89923C17.2766 7.14777 17.3768 7.4566 17.3783 7.77282C17.3822 8.60475 17.4509 10.3128 17.9109 11.4129C18.3584 12.4829 19.1797 13.6386 19.609 14.2072C19.7737 14.4255 19.7989 14.7206 19.6597 14.956C19.3568 15.4689 18.7583 16.4535 17.9109 17.7169C17.3267 18.588 17.056 19.6648 16.934 20.5718Z" fill="#6C31E3"/>
<path d="M8.4802 20.675C10.0958 17.3952 10.0507 15.0455 9.36324 13.3686C8.73055 11.8255 7.55383 10.8521 6.62633 10.2481C6.6068 10.3353 6.57848 10.4205 6.5418 10.5023L4.36675 15.3493C4.14336 15.8471 4.24627 16.4308 4.62645 16.8223L8.10528 20.4043C8.21442 20.5166 8.34153 20.6079 8.4802 20.675Z" fill="url(#paint0_radial_1015_11700)"/>
<path d="M15.0312 21.9505C15.9184 22.1966 16.8112 21.4838 16.9341 20.5713C17.0399 19.7858 17.257 18.8727 17.6928 18.0764C16.6929 15.924 15.4837 14.8077 14.1581 14.313C12.7549 13.7893 11.2214 13.962 9.66754 14.3393C10.0149 15.9201 9.80697 17.9846 8.48203 20.6747C8.6329 20.7478 8.79741 20.7923 8.96738 20.8044C8.96738 20.8044 9.92346 20.8849 11.0605 20.9654C12.1975 21.0458 13.8895 21.6339 15.0312 21.9505Z" fill="url(#paint1_radial_1015_11700)"/>
<path d="M12.8767 14.018C13.3133 14.0636 13.7412 14.1577 14.1576 14.313C15.4835 14.8078 16.6929 15.9241 17.693 18.0763C17.7603 17.9535 17.8328 17.8334 17.9109 17.7169C18.7582 16.4535 19.3568 15.4689 19.6597 14.956C19.7989 14.7206 19.7736 14.4255 19.6089 14.2072C19.1797 13.6386 18.3584 12.4829 17.9109 11.4128C17.4509 10.3128 17.3822 8.60474 17.3783 7.77281C17.3768 7.4566 17.2765 7.14776 17.0809 6.89922L13.6239 2.50815C13.6054 2.48467 13.5863 2.46199 13.5666 2.44011C13.8202 3.2714 13.803 3.94013 13.6466 4.54805C13.5015 5.11161 13.2366 5.62291 12.9569 6.16298L12.9569 6.16306C12.863 6.34419 12.7676 6.52857 12.6743 6.71927C12.3031 7.47847 11.968 8.3376 11.9186 9.48966C11.8692 10.6418 12.1053 12.0868 12.8768 14.0179L12.8767 14.018Z" fill="url(#paint2_radial_1015_11700)"/>
<path d="M12.8763 14.0179C12.1048 12.0868 11.8686 10.6418 11.918 9.48961C11.9675 8.33746 12.3026 7.47833 12.6738 6.71909C12.767 6.52835 12.8626 6.34397 12.9564 6.1628C13.2361 5.62271 13.5009 5.11146 13.646 4.54795C13.8025 3.93989 13.8197 3.27099 13.5658 2.43934C13.0781 1.89806 12.2362 1.84705 11.6861 2.34179L7.5708 6.04335C7.34127 6.24979 7.19056 6.5296 7.14451 6.83483L6.64353 10.1558C6.63888 10.1866 6.63314 10.2172 6.62634 10.2476C7.55388 10.8517 8.7308 11.8251 9.36353 13.3684C9.48711 13.6699 9.58994 13.993 9.66612 14.3394C10.7589 14.074 11.8417 13.9099 12.8763 14.0179Z" fill="url(#paint3_radial_1015_11700)"/>
<path fill-rule="evenodd" clip-rule="evenodd" d="M11.9261 9.41374C11.8765 10.5566 12.0191 11.8676 12.789 13.7947L12.5472 13.7729C11.8566 11.7619 11.7063 10.7309 11.7566 9.57219C11.8069 8.41296 12.1814 7.52154 12.5547 6.76115C12.6493 6.56858 12.8699 6.20695 12.9642 6.02543C13.2437 5.48798 13.4298 5.20407 13.5895 4.71282C13.8127 4.02641 13.7644 3.7013 13.7389 3.37776C13.9161 4.54734 13.2435 5.56436 12.735 6.60019C12.3646 7.35476 11.9757 8.27141 11.9261 9.41374Z" fill="url(#paint4_radial_1015_11700)"/>
<path fill-rule="evenodd" clip-rule="evenodd" d="M9.59085 13.4536C9.68216 13.6647 9.76841 13.8352 9.82286 14.0964L9.62113 14.1418C9.5372 13.8367 9.47234 13.6197 9.35618 13.3581C8.66102 11.718 7.54539 10.8744 6.63367 10.2557C7.73491 10.8482 8.8652 11.7755 9.59085 13.4536Z" fill="url(#paint5_radial_1015_11700)"/>
<path fill-rule="evenodd" clip-rule="evenodd" d="M9.83459 14.3028C10.2198 16.0953 9.79007 18.3726 8.52368 20.5863C9.5822 18.3924 10.0953 16.2853 9.66798 14.3385L9.83459 14.3028Z" fill="url(#paint6_radial_1015_11700)"/>
<path fill-rule="evenodd" clip-rule="evenodd" d="M14.2055 14.1415C16.2818 14.9185 17.0813 16.6246 17.6788 18.0478C16.9408 16.5575 15.9148 14.9117 14.131 14.3008C12.7737 13.836 11.6274 13.8911 9.66783 14.3358L9.62416 14.1415C11.7039 13.6677 12.7912 13.6123 14.2055 14.1415Z" fill="url(#paint7_radial_1015_11700)"/>
<defs>
<radialGradient id="paint0_radial_1015_11700" cx="0" cy="0" r="1" gradientUnits="userSpaceOnUse" gradientTransform="translate(8.30644 20.3513) rotate(-104.574) scale(9.10018 6.06435)">
<stop stop-color="white" stop-opacity="0.4"/>
<stop offset="1" stop-opacity="0.1"/>
</radialGradient>
<radialGradient id="paint1_radial_1015_11700" cx="0" cy="0" r="1" gradientTransform="matrix(-3.76006 -6.36723 7.31037 -4.31817 15.0971 21.9996)" gradientUnits="userSpaceOnUse">
<stop stop-color="white" stop-opacity="0.3"/>
<stop offset="1" stop-opacity="0.25"/>
</radialGradient>
<radialGradient id="paint2_radial_1015_11700" cx="0" cy="0" r="1" gradientUnits="userSpaceOnUse" gradientTransform="translate(16.0625 16.6094) rotate(-82.4846) scale(14.933 11.0326)">
<stop stop-color="white" stop-opacity="0.55"/>
<stop offset="1" stop-color="white" stop-opacity="0.05"/>
</radialGradient>
<radialGradient id="paint3_radial_1015_11700" cx="0" cy="0" r="1" gradientUnits="userSpaceOnUse" gradientTransform="translate(8.85176 13.9877) rotate(-77.7214) scale(12.752 8.69653)">
<stop stop-color="white" stop-opacity="0.83"/>
<stop offset="1" stop-color="white" stop-opacity="0.4"/>
</radialGradient>
<radialGradient id="paint4_radial_1015_11700" cx="0" cy="0" r="1" gradientUnits="userSpaceOnUse" gradientTransform="translate(14.1094 7.00007) rotate(102.236) scale(6.63511 4.47431)">
<stop stop-color="white" stop-opacity="0"/>
<stop offset="1" stop-color="white" stop-opacity="0.17"/>
</radialGradient>
<radialGradient id="paint5_radial_1015_11700" cx="0" cy="0" r="1" gradientUnits="userSpaceOnUse" gradientTransform="translate(6.33589 10.5938) rotate(45.3237) scale(4.88907 10.4132)">
<stop stop-color="white" stop-opacity="0.2"/>
<stop offset="1" stop-color="white" stop-opacity="0.44"/>
</radialGradient>
<radialGradient id="paint6_radial_1015_11700" cx="0" cy="0" r="1" gradientUnits="userSpaceOnUse" gradientTransform="translate(10.027 12.9072) rotate(80.2016) scale(5.7303 12.1686)">
<stop stop-color="white" stop-opacity="0.25"/>
<stop offset="1" stop-color="white" stop-opacity="0.3"/>
</radialGradient>
<radialGradient id="paint7_radial_1015_11700" cx="0" cy="0" r="1" gradientUnits="userSpaceOnUse" gradientTransform="translate(17.625 17.586) rotate(-152.297) scale(8.73157 27.4777)">
<stop stop-color="white" stop-opacity="0.21"/>
<stop offset="0.46738" stop-color="white" stop-opacity="0.19"/>
<stop offset="1" stop-color="white" stop-opacity="0.29"/>
</radialGradient>
</defs>
</svg>
