<svg width="24" height="24" viewBox="0 0 24 24" fill="none" xmlns="http://www.w3.org/2000/svg">
<path fill-rule="evenodd" clip-rule="evenodd" d="M9.33279 2.00015C8.22724 2.00097 7.3325 2.89637 7.33332 3.99971C7.3325 5.10306 8.22805 5.99845 9.33361 5.99927H11.3339V4.00053C11.3347 2.89718 10.4392 2.00178 9.33279 2.00015C9.33361 2.00015 9.33361 2.00015 9.33279 2.00015ZM9.33279 7.3334H4.00031C2.89476 7.33421 1.9992 8.22961 2.00002 9.33295C1.99838 10.4363 2.89394 11.3317 3.99949 11.3333H9.33279C10.4383 11.3325 11.3339 10.4371 11.3331 9.33377C11.3339 8.22961 10.4383 7.33421 9.33279 7.3334Z" fill="#36C5F0"/>
<path fill-rule="evenodd" clip-rule="evenodd" d="M22 9.33295C22.0008 8.22961 21.1053 7.33421 19.9997 7.3334C18.8942 7.33421 17.9986 8.22961 17.9994 9.33295V11.3333H19.9997C21.1053 11.3325 22.0008 10.4371 22 9.33295ZM16.6667 9.33295V3.99971C16.6675 2.89718 15.7728 2.00178 14.6672 2.00015C13.5617 2.00097 12.6661 2.89637 12.6669 3.99971V9.33295C12.6653 10.4363 13.5609 11.3317 14.6664 11.3333C15.772 11.3325 16.6675 10.4371 16.6667 9.33295Z" fill="#2EB67D"/>
<path fill-rule="evenodd" clip-rule="evenodd" d="M14.666 21.9999C15.7716 21.9991 16.6671 21.1037 16.6663 20.0003C16.6671 18.897 15.7716 18.0016 14.666 18.0008H12.6657V20.0003C12.6649 21.1028 13.5605 21.9982 14.666 21.9999ZM14.666 16.6658H19.9993C21.1049 16.665 22.0004 15.7696 21.9996 14.6663C22.0012 13.5629 21.1057 12.6675 20.0001 12.6659H14.6668C13.5613 12.6667 12.6657 13.5621 12.6665 14.6654C12.6657 15.7696 13.5605 16.665 14.666 16.6658Z" fill="#ECB22E"/>
<path fill-rule="evenodd" clip-rule="evenodd" d="M2 14.6664C1.99918 15.7697 2.89474 16.6651 4.00029 16.6659C5.10585 16.6651 6.0014 15.7697 6.00059 14.6664V12.6668H4.00029C2.89474 12.6676 1.99918 13.563 2 14.6664ZM7.3333 14.6664V19.9996C7.33166 21.1029 8.22722 21.9983 9.33277 22C10.4383 21.9992 11.3339 21.1038 11.3331 20.0004V14.668C11.3347 13.5646 10.4391 12.6692 9.33359 12.6676C8.22722 12.6676 7.33248 13.563 7.3333 14.6664Z" fill="#E01E5A"/>
</svg>
