<svg width="24" height="24" viewBox="0 0 24 24" fill="none" xmlns="http://www.w3.org/2000/svg">
<rect x="5.43599" y="5.43628" width="13.1277" height="13.1277" fill="white"/>
<path fill-rule="evenodd" clip-rule="evenodd" d="M19.6204 2H4.37915C3.74836 2.00087 3.14366 2.25183 2.69762 2.69787C2.25159 3.1439 2.00062 3.7486 1.99976 4.37939V19.6206C2.00062 20.2514 2.25159 20.8561 2.69762 21.3021C3.14366 21.7482 3.74836 21.9991 4.37915 22H19.6204C20.2512 21.9991 20.8559 21.7482 21.3019 21.3021C21.7479 20.8561 21.9989 20.2514 21.9998 19.6206V4.37939C21.9989 3.7486 21.7479 3.1439 21.3019 2.69787C20.8559 2.25183 20.2512 2.00087 19.6204 2ZM10.6148 16.4043C10.6148 16.6141 10.5315 16.8153 10.3831 16.9636C10.2348 17.1119 10.0336 17.1953 9.82384 17.1953H6.48285C6.27308 17.1953 6.0719 17.1119 5.92357 16.9636C5.77524 16.8153 5.69191 16.6141 5.69191 16.4043V6.4831C5.69191 6.27333 5.77524 6.07215 5.92357 5.92382C6.0719 5.77549 6.27308 5.69216 6.48285 5.69216H9.82384C10.0336 5.69216 10.2348 5.77549 10.3831 5.92382C10.5315 6.07215 10.6148 6.27333 10.6148 6.4831V16.4043ZM18.3076 11.849C18.3098 11.9543 18.2909 12.0589 18.2522 12.1568C18.2134 12.2546 18.1555 12.3438 18.0818 12.419C18.0082 12.4941 17.9202 12.5539 17.8232 12.5946C17.7261 12.6354 17.6219 12.6564 17.5167 12.6564H14.1757C13.9659 12.6564 13.7647 12.5731 13.6164 12.4247C13.4681 12.2764 13.3847 12.0752 13.3847 11.8654V6.4831C13.3847 6.27333 13.4681 6.07215 13.6164 5.92382C13.7647 5.77549 13.9659 5.69216 14.1757 5.69216H17.5167C17.7264 5.69216 17.9276 5.77549 18.0759 5.92382C18.2243 6.07215 18.3076 6.27333 18.3076 6.4831V11.849Z" fill="url(#paint0_linear_1015_11634)"/>
<defs>
<linearGradient id="paint0_linear_1015_11634" x1="11.9998" y1="22" x2="11.9998" y2="2" gradientUnits="userSpaceOnUse">
<stop stop-color="#0052CC"/>
<stop offset="1" stop-color="#2684FF"/>
</linearGradient>
</defs>
</svg>
