<svg width="27" height="28" viewBox="0 0 27 28" fill="none" xmlns="http://www.w3.org/2000/svg">
<g filter="url(#filter0_d_2353_19620)">
<path fill-rule="evenodd" clip-rule="evenodd" d="M6.76713 18.8151C6.40589 18.326 5.96705 17.3261 5.18605 16.1123C4.7434 15.4256 3.64567 14.1328 3.31877 13.4762C3.03512 12.8958 3.06565 12.6356 3.13306 12.1547C3.25263 11.2992 4.07179 10.633 4.94565 10.7229C5.60581 10.7897 6.16548 11.257 6.66919 11.6984C6.9732 11.964 7.34716 12.4803 7.5723 12.7719C7.77964 13.0389 7.83052 13.1492 8.05184 13.4653C8.3444 13.8835 8.43598 14.0906 8.32405 13.6301C8.23374 12.9544 8.08619 11.8005 7.87249 10.7802C7.70968 10.0064 7.67025 9.88512 7.51506 9.29115C7.35098 8.65903 7.26703 8.21628 7.11312 7.54602C7.00627 7.07194 6.8142 6.10333 6.76205 5.55841C6.68954 4.81322 6.65138 3.59804 7.09785 3.03949C7.44765 2.60218 8.25027 2.47004 8.74762 2.73978C9.39888 3.09262 9.76903 4.10618 9.9382 4.51079C10.2422 5.23826 10.4305 6.07881 10.5945 7.18229C10.8032 8.58683 11.1873 10.5363 11.2 10.9464C11.2305 10.4437 11.1135 9.38515 11.1949 8.90289C11.2687 8.46559 11.6121 7.95744 12.0421 7.81985C12.4059 7.70405 12.832 7.66182 13.2072 7.74492C13.6053 7.83211 14.0251 8.13727 14.1816 8.42472C14.642 9.2748 14.6509 11.0118 14.67 10.9191C14.7794 10.4069 14.7603 9.24483 15.0312 8.76121C15.2093 8.44243 15.6634 8.15498 15.9051 8.10866C16.2791 8.03782 16.7383 8.01602 17.1313 8.09776C17.448 8.16451 17.8767 8.56776 17.9924 8.76121C18.2697 9.22984 18.4275 10.5554 18.4745 11.0199C18.4936 11.212 18.5686 10.4859 18.8472 10.0173C19.3636 9.14674 21.1915 8.97782 21.2614 10.8878C21.2932 11.7787 21.2869 11.7379 21.2869 12.3373C21.2869 13.0416 21.2716 13.4653 21.236 13.9748C21.1966 14.5197 21.0872 15.7512 20.9282 16.3479C20.8188 16.758 20.4563 17.6803 20.0988 18.2334C20.0988 18.2334 18.7327 19.9363 18.5839 20.7033C18.4338 21.4689 18.4834 21.4743 18.4542 22.0179C18.4249 22.5601 18.6081 23.2739 18.6081 23.2739C18.6081 23.2739 17.5879 23.4156 17.0384 23.3216C16.5411 23.2358 15.9255 22.1759 15.7665 21.8517C15.5477 21.4048 15.0809 21.4907 14.899 21.8204C14.6128 22.3421 13.9971 23.278 13.5621 23.3366C12.7124 23.451 10.9494 23.3788 9.56933 23.3639C9.56933 23.3639 9.80464 21.9866 9.28058 21.5138C8.89263 21.161 8.22483 20.4458 7.82543 20.0698L6.76713 18.8151Z" fill="white"/>
<path fill-rule="evenodd" clip-rule="evenodd" d="M6.76713 18.8151C6.40589 18.326 5.96705 17.3261 5.18605 16.1123C4.7434 15.4256 3.64567 14.1328 3.31877 13.4762C3.03512 12.8958 3.06565 12.6356 3.13306 12.1547C3.25263 11.2992 4.07179 10.633 4.94565 10.7229C5.60581 10.7897 6.16548 11.257 6.66919 11.6984C6.9732 11.964 7.34716 12.4803 7.5723 12.7719C7.77964 13.0389 7.83052 13.1492 8.05184 13.4653C8.3444 13.8835 8.43598 14.0906 8.32405 13.6301C8.23374 12.9544 8.08619 11.8005 7.87249 10.7802C7.70968 10.0064 7.67025 9.88512 7.51506 9.29115C7.35098 8.65903 7.26703 8.21628 7.11312 7.54602C7.00627 7.07194 6.8142 6.10333 6.76205 5.55841C6.68954 4.81322 6.65138 3.59804 7.09785 3.03949C7.44765 2.60218 8.25027 2.47004 8.74762 2.73978C9.39888 3.09262 9.76903 4.10618 9.9382 4.51079C10.2422 5.23826 10.4305 6.07881 10.5945 7.18229C10.8032 8.58683 11.1873 10.5363 11.2 10.9464C11.2305 10.4437 11.1135 9.38515 11.1949 8.90289C11.2687 8.46559 11.6121 7.95744 12.0421 7.81985C12.4059 7.70405 12.832 7.66182 13.2072 7.74492C13.6053 7.83211 14.0251 8.13727 14.1816 8.42472C14.642 9.2748 14.6509 11.0118 14.67 10.9191C14.7794 10.4069 14.7603 9.24483 15.0312 8.76121C15.2093 8.44243 15.6634 8.15498 15.9051 8.10866C16.2791 8.03782 16.7383 8.01602 17.1313 8.09776C17.448 8.16451 17.8767 8.56776 17.9924 8.76121C18.2697 9.22984 18.4275 10.5554 18.4745 11.0199C18.4936 11.212 18.5686 10.4859 18.8472 10.0173C19.3636 9.14674 21.1915 8.97782 21.2614 10.8878C21.2932 11.7787 21.2869 11.7379 21.2869 12.3373C21.2869 13.0416 21.2716 13.4653 21.236 13.9748C21.1966 14.5197 21.0872 15.7512 20.9282 16.3479C20.8188 16.758 20.4563 17.6803 20.0988 18.2334C20.0988 18.2334 18.7327 19.9363 18.5839 20.7033C18.4338 21.4689 18.4834 21.4743 18.4542 22.0179C18.4249 22.5601 18.6081 23.2739 18.6081 23.2739C18.6081 23.2739 17.5879 23.4156 17.0384 23.3216C16.5411 23.2358 15.9255 22.1759 15.7665 21.8517C15.5477 21.4048 15.0809 21.4907 14.899 21.8204C14.6128 22.3421 13.9971 23.278 13.5621 23.3366C12.7124 23.451 10.9494 23.3788 9.56933 23.3639C9.56933 23.3639 9.80464 21.9866 9.28058 21.5138C8.89263 21.161 8.22483 20.4458 7.82543 20.0698L6.76713 18.8151Z" stroke="black" stroke-width="0.975" stroke-linecap="round" stroke-linejoin="round"/>
</g>
<path d="M11.5376 14.2998C11.8964 14.3 12.188 14.5913 12.188 14.9502V18.8506C12.1876 19.2091 11.8961 19.4998 11.5376 19.5C11.1789 19.5 10.8876 19.2092 10.8872 18.8506V14.9502C10.8872 14.5912 11.1786 14.2998 11.5376 14.2998ZM14.1372 14.2998C14.4962 14.2998 14.7876 14.5912 14.7876 14.9502V18.8506C14.7872 19.2092 14.4959 19.5 14.1372 19.5C13.7785 19.5 13.4872 19.2092 13.4868 18.8506V14.9502C13.4868 14.5912 13.7782 14.2998 14.1372 14.2998ZM16.7368 14.2998C17.0958 14.2998 17.3872 14.5912 17.3872 14.9502V18.8506C17.3868 19.2092 17.0955 19.5 16.7368 19.5C16.3783 19.4998 16.0868 19.2091 16.0864 18.8506V14.9502C16.0864 14.5913 16.378 14.3 16.7368 14.2998Z" fill="black"/>
<defs>
<filter id="filter0_d_2353_19620" x="9.75132e-05" y="0.812793" width="24.3748" height="26.9749" filterUnits="userSpaceOnUse" color-interpolation-filters="sRGB">
<feFlood flood-opacity="0" result="BackgroundImageFix"/>
<feColorMatrix in="SourceAlpha" type="matrix" values="0 0 0 0 0 0 0 0 0 0 0 0 0 0 0 0 0 0 127 0" result="hardAlpha"/>
<feOffset dy="1.3"/>
<feGaussianBlur stdDeviation="1.3"/>
<feColorMatrix type="matrix" values="0 0 0 0 0 0 0 0 0 0 0 0 0 0 0 0 0 0 0.24 0"/>
<feBlend mode="normal" in2="BackgroundImageFix" result="effect1_dropShadow_2353_19620"/>
<feBlend mode="normal" in="SourceGraphic" in2="effect1_dropShadow_2353_19620" result="shape"/>
</filter>
</defs>
</svg>
