<svg width="24" height="24" viewBox="0 0 24 24" fill="none" xmlns="http://www.w3.org/2000/svg">
<path d="M10.457 16.6188C7.87891 16.2961 6.0625 14.3806 6.0625 11.9004C6.0625 10.8923 6.41407 9.80343 7.00001 9.07753C6.74609 8.41213 6.78515 7.00067 7.07813 6.41592C7.85937 6.31511 8.91407 6.73853 9.53907 7.32328C10.2813 7.08133 11.0625 6.96035 12.0195 6.96035C12.9766 6.96035 13.7578 7.08133 14.4609 7.30312C15.0664 6.73853 16.1406 6.31511 16.9219 6.41592C17.1953 6.96035 17.2344 8.37181 16.9805 9.05737C17.6055 9.82359 17.9375 10.8519 17.9375 11.9004C17.9375 14.3806 16.1211 16.2558 13.5039 16.5986C14.168 17.0422 14.6172 18.0101 14.6172 19.1191V21.2161C14.6172 21.821 15.1055 22.1638 15.6914 21.9218C19.2266 20.5305 22 16.8809 22 12.3642C22 6.65788 17.5078 2.00006 11.9805 2.00006C6.45313 2.00006 2 6.65788 2 12.3642C2 16.8406 4.75391 20.5507 8.46484 21.942C8.99219 22.1436 9.50001 21.7807 9.50001 21.2363V19.6232C9.22656 19.7442 8.87501 19.8248 8.5625 19.8248C7.27344 19.8248 6.51172 19.0989 5.96484 17.7479C5.75001 17.2035 5.51562 16.8809 5.0664 16.8204C4.83203 16.8002 4.75391 16.6994 4.75391 16.5785C4.75391 16.3365 5.14454 16.155 5.53515 16.155C6.10156 16.155 6.58984 16.518 7.09766 17.264C7.48827 17.8488 7.89844 18.1109 8.38672 18.1109C8.87501 18.1109 9.1875 17.9294 9.63672 17.4656C9.96874 17.1229 10.2227 16.8204 10.457 16.6188Z" fill="white"/>
</svg>
