<svg width="24" height="24" viewBox="0 0 24 24" fill="none" xmlns="http://www.w3.org/2000/svg">
<path d="M4.80649 12.8765C4.53122 12.1295 4.30585 11.358 4.12555 10.5686C3.91788 9.66698 3.76978 8.73927 3.6748 7.79692C3.60558 7.10196 3.49128 5.80806 3.62812 4.63623C3.77783 3.37 4.21892 2.24048 5.30553 2.03052C7.16003 1.67246 8.03415 4.54834 8.55734 6.26378C8.63944 6.53558 8.71349 6.77645 8.77788 6.96037C8.95335 7.46491 9.12882 7.94991 9.31073 8.42028C9.44595 8.7702 9.58278 9.1071 9.72123 9.43098C9.76308 9.40494 9.80494 9.38216 9.8484 9.35774C10.1527 9.19499 10.4827 9.09408 10.8256 9.04688C11.5081 8.95248 12.1826 9.05176 12.8169 9.28288C13.5204 9.5384 14.1739 9.95831 14.7358 10.4563C14.9756 10.6695 15.3233 11.0097 15.6034 11.3661C15.8143 11.6347 15.9898 11.9162 16.0606 12.1734C16.0944 12.2955 16.1138 12.4192 16.1154 12.5412C16.1186 12.6682 16.1041 12.7886 16.0735 12.9009C16.0284 13.0669 15.9496 13.2183 15.8385 13.3469C15.7322 13.4689 15.5954 13.5698 15.4312 13.6398C14.8774 13.8758 14.2721 13.5763 13.6588 13.2752C13.3771 13.1369 13.0938 12.9969 12.8426 12.9253C12.4225 12.8065 12.0055 12.743 11.5966 12.7316C12.1601 13.4478 12.8056 14.0776 13.5783 14.6456C14.5249 15.3374 15.6582 15.9363 17.0603 16.4848C17.2551 16.5613 17.4676 16.641 17.6946 16.7224C17.9151 16.8021 18.1389 16.8786 18.3691 16.9551H18.3707C18.4882 16.9942 18.5816 17.0235 18.6766 17.0544C19.7262 17.3864 21.0961 17.8194 20.9947 19.1149C20.9577 19.582 20.779 20.0963 20.3717 20.5585C20.0481 20.9247 19.5813 21.2551 18.9277 21.4944C18.918 21.4976 18.9084 21.5009 18.8987 21.5041C17.759 21.7971 16.6434 21.9029 15.5535 21.8231C14.4621 21.745 13.398 21.4813 12.3597 21.0419C11.1266 20.5195 10.0432 19.8571 9.09501 19.0823C8.4527 18.5583 7.87478 17.9821 7.35481 17.362C7.46589 17.9121 7.63331 18.4525 7.78946 18.9473C8.06313 19.8229 8.29816 20.5764 8.16616 21.1428C8.15972 21.1705 8.15006 21.203 8.13879 21.2372C8.01322 21.6132 7.71219 21.8313 7.36286 21.9338C7.06183 22.0217 6.71572 22.0168 6.43723 21.9501C6.39215 21.9387 6.34386 21.9257 6.29556 21.9078C5.97682 21.7987 5.6774 21.6522 5.39729 21.4748C4.37829 20.8271 3.65548 19.7724 3.28523 18.5941C2.91658 17.4222 2.89566 16.1251 3.27879 14.9842C3.3947 14.6375 3.55085 14.3039 3.74402 13.9914C4.02413 13.5373 4.3799 13.1564 4.80649 12.8765Z" fill="#7A2E00"/>
<path d="M7.05669 19.1799C6.49165 17.3684 5.76241 15.0345 7.71349 13.3695C7.07279 13.14 6.50775 13.0977 6.01998 13.197C5.32132 13.3419 4.77077 13.7894 4.39086 14.4014C4.22988 14.6602 4.10109 14.9385 4.00289 15.2314C3.67288 16.2145 3.6922 17.3407 4.01255 18.358C4.33129 19.3703 4.94463 20.2719 5.80427 20.8172C6.03125 20.962 6.27755 21.0808 6.53995 21.172C6.55926 21.1785 6.58341 21.185 6.61239 21.1931C6.77659 21.2322 6.97781 21.2355 7.15167 21.185C7.27724 21.1492 7.38026 21.0841 7.41246 20.9864C7.41407 20.9832 7.41568 20.975 7.4189 20.962C7.50261 20.604 7.29655 19.9448 7.05669 19.1799Z" fill="#FCEB8F"/>
<path d="M7.2322 16.195C7.86807 17.0804 8.61341 17.8876 9.4811 18.5956C10.3842 19.3329 11.4193 19.9644 12.5993 20.4657C13.5764 20.8807 14.5761 21.1265 15.5984 21.2013C16.619 21.2746 17.6669 21.1769 18.7391 20.9002C19.2784 20.7 19.6567 20.4331 19.9142 20.1434C20.0028 20.0425 20.0768 19.9384 20.138 19.8342C17.749 20.1255 15.5211 19.5835 13.6296 18.5891C11.3597 17.3945 9.57125 15.544 8.56512 13.6902C7.56865 14.3705 7.24347 15.2624 7.2322 16.195Z" fill="#FEDA00"/>
<path d="M9.21871 9.82461C9.05451 9.44864 8.89514 9.0564 8.73577 8.64626C8.55708 8.18404 8.37839 7.68926 8.19648 7.16519C8.12726 6.96826 8.05321 6.7225 7.9695 6.44582C7.50749 4.93057 6.73317 2.38834 5.42118 2.64224C4.67906 2.78546 4.36032 3.68875 4.2412 4.70922C4.1108 5.82247 4.22027 7.06754 4.28788 7.73809C4.37964 8.64952 4.52291 9.55118 4.72575 10.4317C4.89478 11.1706 5.10566 11.8932 5.3584 12.5914C5.52099 12.528 5.69002 12.4759 5.86871 12.4401C6.53195 12.3034 7.29499 12.3685 8.14497 12.707C8.15785 12.484 8.18039 12.2594 8.21419 12.0364C8.2818 11.5905 8.39771 11.1494 8.58767 10.7409C8.65367 10.5977 8.72611 10.4659 8.80499 10.3422C8.88548 10.2152 8.97241 10.098 9.06578 9.99062C9.11246 9.93365 9.16559 9.87832 9.21871 9.82461Z" fill="#FDF2B4"/>
<path d="M8.757 12.7949C9.33653 12.4889 9.95147 12.2774 10.5906 12.1748C11.3729 12.0495 12.1875 12.0902 13.0117 12.3245C13.3208 12.4124 13.6267 12.5638 13.9309 12.7135C14.4187 12.9544 14.9016 13.192 15.1946 13.0667C15.267 13.0358 15.3282 12.9902 15.3765 12.9349C15.4248 12.8795 15.4586 12.8128 15.4795 12.7379C15.4956 12.6794 15.5021 12.6175 15.5021 12.554C15.5005 12.4889 15.4892 12.4173 15.4683 12.3425C15.4216 12.1748 15.2864 11.9649 15.1222 11.7533C14.8694 11.4327 14.5491 11.1202 14.3285 10.9232C13.8198 10.4708 13.2339 10.0932 12.6109 9.86695C12.0651 9.66839 11.4888 9.58376 10.9093 9.66351C10.6372 9.70094 10.3765 9.78069 10.1366 9.90764C9.91445 10.0265 9.71 10.1876 9.5297 10.3959C9.45726 10.4805 9.38804 10.5733 9.32204 10.6775C9.25765 10.7784 9.19808 10.8874 9.14335 11.0046C8.98076 11.3513 8.88256 11.7338 8.823 12.1276C8.78919 12.349 8.76826 12.5719 8.757 12.7949Z" fill="#FCEB8F"/>
<path d="M20.3682 19.1734C20.3731 19.1359 20.3779 19.1001 20.3795 19.0643C20.4423 18.2652 19.338 17.9153 18.4928 17.6484C18.3721 17.6109 18.2562 17.5735 18.1773 17.5475C17.9407 17.4693 17.7105 17.3896 17.4899 17.3098C17.2758 17.2333 17.0585 17.152 16.8379 17.0641C15.3827 16.4944 14.2043 15.8695 13.2191 15.1468C12.2758 14.4551 11.5111 13.6739 10.8511 12.7641C10.7947 12.7706 10.7384 12.7787 10.6837 12.7885C10.1267 12.878 9.58578 13.0619 9.07386 13.3305C10.0204 15.1045 11.7316 16.8867 13.9145 18.0341C15.7771 19.0139 17.9809 19.5298 20.3393 19.1766C20.3489 19.175 20.3586 19.175 20.3682 19.1734Z" fill="#F5A800"/>
</svg>
