<svg width="32" height="32" viewBox="0 0 32 32" fill="none" xmlns="http://www.w3.org/2000/svg">
<path d="M3.26944 14.5404C3.26944 14.5404 6.16269 10.3069 11.9396 9.86887V8.33293C5.54095 8.84257 0 14.2172 0 14.2172C0 14.2172 3.1383 23.2145 11.9396 24.0385V22.4059C5.48078 21.6001 3.26944 14.5404 3.26944 14.5404ZM11.9396 19.1591V20.6544C7.05816 19.7911 5.7032 14.7589 5.7032 14.7589C5.7032 14.7589 8.04696 12.1839 11.9396 11.7663V13.4069C11.9366 13.4069 11.9345 13.406 11.9321 13.406C9.88906 13.1629 8.29304 15.0557 8.29304 15.0557C8.29304 15.0557 9.1876 18.2421 11.9396 19.1591ZM11.9396 5.5V8.33293C12.1274 8.31865 12.3152 8.30654 12.5041 8.30016C19.7786 8.05701 24.5185 14.2172 24.5185 14.2172C24.5185 14.2172 19.0746 20.7822 13.403 20.7822C12.8832 20.7822 12.3966 20.7344 11.9396 20.6541V22.4059C12.3438 22.4574 12.7509 22.4835 13.1585 22.4839C18.4363 22.4839 22.253 19.8108 25.9488 16.647C26.5615 17.1337 29.0701 18.3177 29.5858 18.8359C26.0718 21.7537 17.8823 24.1057 13.2394 24.1057C12.7918 24.1057 12.362 24.0789 11.9396 24.0385V26.5H32V5.5H11.9396ZM11.9396 11.7663V9.86887C12.1255 9.85599 12.3128 9.84617 12.5041 9.84018C17.7352 9.67723 21.1671 14.2984 21.1671 14.2984C21.1671 14.2984 17.4603 19.404 13.4858 19.404C12.9138 19.404 12.401 19.3129 11.9394 19.159V13.4068C13.9759 13.6508 14.3858 14.543 15.6101 16.5671L18.3333 14.29C18.3333 14.29 16.3455 11.7046 12.9947 11.7046C12.6303 11.7044 12.2818 11.7299 11.9396 11.7663Z" fill="#77B900"/>
</svg>
