<svg width="24" height="24" viewBox="0 0 24 24" fill="none" xmlns="http://www.w3.org/2000/svg">
<g clip-path="url(#clip0_4654_6957)">
<path fill-rule="evenodd" clip-rule="evenodd" d="M8.56404 2.90823C8.74404 2.97909 8.90654 3.09573 9.05404 3.24991C9.29986 3.50491 9.50736 3.86991 9.66572 4.30241C9.82486 4.73741 9.92822 5.21909 9.96736 5.70241C10.492 5.40559 11.0743 5.22485 11.6749 5.17241L11.7174 5.16909C12.4424 5.11073 13.159 5.24159 13.784 5.56409C13.8682 5.60837 13.9507 5.65561 14.0315 5.70573C14.0732 5.23159 14.1749 4.76073 14.3315 4.33573C14.4899 3.90241 14.6974 3.53823 14.9424 3.28241C15.0793 3.13429 15.2468 3.01771 15.4332 2.94073C15.6474 2.85741 15.8749 2.84241 16.0965 2.90573C16.4307 3.00073 16.7174 3.21241 16.9432 3.51991C17.1499 3.80077 17.3049 4.16073 17.4107 4.59241C17.6024 5.37073 17.6357 6.39491 17.5065 7.62991L17.5507 7.66323L17.5724 7.67909C18.2032 8.15909 18.6424 8.84323 18.8749 9.63741C19.2374 10.8766 19.0549 12.2666 18.4299 13.0441L18.4149 13.0616L18.4165 13.0641C18.764 13.6991 18.9749 14.3699 19.0199 15.0641L19.0215 15.0891C19.0749 15.9766 18.8549 16.8699 18.3432 17.7474L18.3374 17.7557L18.3457 17.7757C18.739 18.7399 18.8624 19.7107 18.7107 20.6807L18.7057 20.7132C18.6822 20.8549 18.6035 20.9815 18.4868 21.0652C18.3701 21.149 18.225 21.183 18.0832 21.1599C17.9775 21.1434 17.8791 21.0958 17.8004 21.0233C17.7218 20.9508 17.6664 20.8565 17.6414 20.7525C17.6249 20.6834 17.6221 20.6117 17.6332 20.5416C17.7724 19.6807 17.6415 18.8174 17.2332 17.9391C17.1951 17.8575 17.1782 17.7676 17.184 17.6777C17.1898 17.5879 17.2182 17.5009 17.2665 17.4249L17.2699 17.4199C17.7732 16.6499 17.9815 15.8949 17.9365 15.1532C17.8982 14.5041 17.6657 13.8666 17.2699 13.2591C17.1929 13.141 17.1654 12.9973 17.1935 12.8592C17.2216 12.721 17.3029 12.5994 17.4199 12.5207L17.4274 12.5157C17.6299 12.3832 17.8165 12.0449 17.9107 11.5824C18.0146 11.0355 17.9875 10.4718 17.8315 9.93741C17.6607 9.35409 17.3482 8.86741 16.9107 8.53491C16.4149 8.15659 15.7582 7.97409 14.9274 8.02659C14.8187 8.03365 14.7105 8.00796 14.6166 7.95285C14.5227 7.89773 14.4475 7.81572 14.4007 7.71741C14.139 7.16323 13.7574 6.76659 13.2815 6.52073C12.8247 6.29274 12.3133 6.19692 11.8049 6.24409C10.7674 6.32659 9.85236 6.91159 9.57986 7.64909C9.54131 7.75288 9.47196 7.84241 9.38112 7.9057C9.29027 7.96899 9.18226 8.00302 9.07154 8.00323C8.18236 8.00491 7.49404 8.21323 6.99072 8.58909C6.55572 8.91409 6.25904 9.36823 6.10236 9.91241C5.9606 10.4246 5.9412 10.963 6.04572 11.4841C6.13904 11.9491 6.32154 12.3341 6.53072 12.5416L6.53736 12.5474C6.71404 12.7199 6.75154 12.9891 6.62822 13.2016C6.32822 13.7199 6.10404 14.4924 6.06736 15.2349C6.02572 16.0832 6.22236 16.8199 6.66654 17.3482L6.67986 17.3641C6.74692 17.4422 6.79005 17.538 6.8041 17.6399C6.81814 17.7419 6.8025 17.8458 6.75904 17.9391C6.27904 18.9691 6.13154 19.8157 6.29072 20.4824C6.31905 20.6209 6.29227 20.765 6.21606 20.8841C6.13986 21.0032 6.02023 21.0879 5.88259 21.1202C5.74495 21.1526 5.60013 21.13 5.47888 21.0572C5.35764 20.9845 5.26951 20.8674 5.23322 20.7307C5.03072 19.8824 5.16822 18.9107 5.62736 17.8157L5.63904 17.7866L5.6324 17.7766C5.40672 17.4432 5.23829 17.0746 5.13404 16.6857L5.12986 16.6699C5.00337 16.1848 4.9536 15.6829 4.98236 15.1824C5.01904 14.4241 5.21404 13.6474 5.50072 13.0241L5.51072 13.0024L5.50904 13.0007C5.2649 12.6524 5.08404 12.2066 4.98404 11.7132L4.97986 11.6932C4.84208 11.0051 4.86864 10.2942 5.05736 9.61823C5.27572 8.85573 5.70486 8.20073 6.33736 7.72741C6.38736 7.68991 6.43986 7.65241 6.49236 7.61741C6.35986 6.37323 6.39322 5.34241 6.58572 4.55909C6.69154 4.12741 6.84736 3.76741 7.05404 3.48659C7.27904 3.17991 7.56572 2.96823 7.89986 2.87241C8.12154 2.80909 8.34986 2.82323 8.56404 2.90741V2.90823ZM11.994 10.4832C12.774 10.4832 13.494 10.7441 14.0324 11.1957C14.5574 11.6349 14.8699 12.2249 14.8699 12.8124C14.8699 13.5524 14.5315 14.1291 13.9257 14.4974C13.409 14.8099 12.7165 14.9616 11.9232 14.9616C11.0824 14.9616 10.364 14.7457 9.84572 14.3499C9.33154 13.9582 9.04322 13.4082 9.04322 12.8124C9.04322 12.2232 9.37486 11.6316 9.92322 11.1907C10.4799 10.7432 11.2149 10.4832 11.994 10.4832ZM11.994 11.2299C11.4159 11.2249 10.8531 11.4158 10.3974 11.7716C10.0132 12.0799 9.79572 12.4674 9.79572 12.8132C9.79572 13.1699 9.97072 13.5041 10.304 13.7582C10.6832 14.0474 11.2407 14.2149 11.9232 14.2149C12.589 14.2149 13.1507 14.0924 13.5332 13.8599C13.919 13.6266 14.1165 13.2882 14.1165 12.8124C14.1165 12.4599 13.9115 12.0707 13.5474 11.7657C13.144 11.4282 12.5974 11.2299 11.994 11.2299ZM12.5457 12.2382L12.549 12.2416C12.5728 12.2714 12.5905 12.3057 12.601 12.3424C12.6116 12.3791 12.6147 12.4175 12.6104 12.4554C12.6061 12.4934 12.5943 12.5301 12.5758 12.5634C12.5572 12.5968 12.5323 12.6262 12.5024 12.6499L12.259 12.8416V13.2132C12.2586 13.296 12.2254 13.3752 12.1667 13.4334C12.1079 13.4917 12.0285 13.5243 11.9457 13.5241C11.863 13.5243 11.7836 13.4917 11.7248 13.4334C11.6661 13.3751 11.6328 13.296 11.6324 13.2132V12.8299L11.4065 12.6482C11.3767 12.6244 11.352 12.5948 11.3336 12.5613C11.3153 12.5279 11.3038 12.4911 11.2998 12.4531C11.2958 12.4151 11.2993 12.3768 11.3102 12.3402C11.3211 12.3036 11.3391 12.2695 11.3632 12.2399C11.4124 12.18 11.4832 12.142 11.5603 12.134C11.6374 12.1261 11.7145 12.1488 11.7749 12.1974L11.954 12.3407L12.1374 12.1957C12.1975 12.1482 12.2739 12.1261 12.3502 12.134C12.4265 12.1419 12.4966 12.1793 12.5457 12.2382ZM8.34572 10.6391C8.74404 10.6391 9.06822 10.9641 9.06822 11.3649C9.0684 11.557 8.99232 11.7414 8.8567 11.8775C8.72108 12.0136 8.53699 12.0903 8.34486 12.0907C8.15301 12.0901 7.96924 12.0134 7.83382 11.8775C7.69839 11.7416 7.62235 11.5576 7.62236 11.3657C7.62195 11.1736 7.6978 10.9891 7.83326 10.8529C7.96906 10.7166 8.15334 10.6397 8.34572 10.6391ZM15.6007 10.6391C16.0007 10.6391 16.324 10.9641 16.324 11.3649C16.3243 11.557 16.2482 11.7414 16.1126 11.8775C15.977 12.0136 15.7929 12.0903 15.6007 12.0907C15.4089 12.0901 15.2251 12.0134 15.0897 11.8775C14.9543 11.7416 14.8782 11.5576 14.8782 11.3657C14.8778 11.1736 14.9536 10.9891 15.0891 10.8529C15.2246 10.7167 15.4086 10.6398 15.6007 10.6391ZM8.17654 3.91659L8.17404 3.91823C8.0775 3.96022 7.99506 4.02908 7.93654 4.11659L7.93236 4.12159C7.81736 4.27909 7.71736 4.51073 7.64236 4.81491C7.50072 5.39159 7.46236 6.17409 7.53904 7.13323C7.89736 7.02659 8.28822 6.95991 8.70904 6.93573L8.71736 6.93491L8.73322 6.90659C8.77144 6.83845 8.81259 6.772 8.85654 6.70741C8.95904 6.06491 8.87486 5.29741 8.64572 4.67073C8.53404 4.36741 8.39822 4.12909 8.26822 3.99323C8.24138 3.96499 8.21147 3.93984 8.17904 3.91823L8.17654 3.91659ZM15.8215 3.94991L15.8199 3.95073C15.7875 3.97234 15.7576 3.99749 15.7307 4.02573C15.6007 4.16159 15.464 4.40073 15.3532 4.70409C15.1115 5.36573 15.0307 6.18409 15.1615 6.84741L15.2099 6.92823L15.2165 6.93991H15.2415C15.6551 6.94002 16.0666 6.99953 16.4632 7.11659C16.5349 6.17991 16.4949 5.41409 16.3565 4.84823C16.2815 4.54409 16.1815 4.31241 16.0657 4.15491L16.0624 4.14991C16.004 4.06208 15.9215 3.99293 15.8249 3.95073H15.8215V3.94991Z" fill="white"/>
</g>
<defs>
<clipPath id="clip0_4654_6957">
<rect x="2" y="2" width="20" height="20" rx="5.55556" fill="white"/>
</clipPath>
</defs>
</svg>
