<svg width="18" height="18" viewBox="0 0 18 18" fill="none" xmlns="http://www.w3.org/2000/svg">
<g clip-path="url(#clip0_209_755)">
<mask id="mask0_209_755" style="mask-type:luminance" maskUnits="userSpaceOnUse" x="0" y="0" width="18" height="18">
<path d="M0 0H18V18H0V0Z" fill="white"/>
</mask>
<g mask="url(#mask0_209_755)">
<path fill-rule="evenodd" clip-rule="evenodd" d="M12.603 1.46781L18.018 4.54655V4.6118L12.5475 7.65752L12.5602 6.0698L11.9445 6.0473C11.1503 6.02627 10.7363 6.04877 10.2435 6.12977C9.4455 6.26105 8.71499 6.56255 7.88326 7.14379L6.25876 8.27255C6.04575 8.4188 5.88751 8.52455 5.74875 8.61377L5.36249 8.8553L5.06475 9.0308L5.35349 9.20327L5.751 9.45679C6.10801 9.6923 6.6285 10.0538 7.77674 10.8563C8.60924 11.4375 9.33901 11.739 10.137 11.8703L10.362 11.904C10.8825 11.9723 11.3933 11.9745 12.4807 11.9288L12.4972 10.3095L17.9122 13.3883V13.4535L12.4418 16.5L12.4522 15.1035L11.976 15.12C10.9365 15.1515 10.3732 15.1215 9.62251 14.9985C8.352 14.7885 7.1775 14.304 5.96176 13.4543L4.34324 12.3293C4.15709 12.2009 3.96831 12.0764 3.77701 11.9558L3.42675 11.7458C3.23761 11.6368 3.04759 11.5293 2.85676 11.4233C2.18099 11.0475 0.422227 10.587 0 10.587V7.41604L0.105012 7.41902C0.528012 7.41379 2.28751 6.95254 2.96174 6.57605L3.72375 6.14102L4.05225 5.93554C4.37326 5.72555 4.85624 5.39104 6.06674 4.54577C7.28251 3.69605 8.45624 3.21079 9.72749 3.00154C10.5915 2.85905 11.208 2.84179 12.588 2.89804L12.603 1.46781Z" fill="white"/>
</g>
</g>
<defs>
<clipPath id="clip0_209_755">
<rect width="18" height="18" fill="white"/>
</clipPath>
</defs>
</svg>
