<svg width="24" height="24" viewBox="0 0 24 24" fill="none" xmlns="http://www.w3.org/2000/svg">
<g clip-path="url(#clip0_1015_12020)">
<path d="M2 2V22H22V2H2Z" fill="#3A76F0"/>
<path d="M10.5596 6.17516L10.6942 6.72065C10.1635 6.85183 9.65546 7.06216 9.1873 7.34456L8.89921 6.86214C9.41452 6.55008 9.9744 6.31842 10.5596 6.17516ZM13.4404 6.17516L13.3058 6.72065C13.8365 6.85183 14.3445 7.06216 14.8127 7.34456L15.1042 6.86214C14.5875 6.55035 14.0266 6.31872 13.4404 6.17516ZM6.86213 8.89751C6.55036 9.41358 6.31873 9.97398 6.17515 10.5596L6.72065 10.6942C6.85183 10.1635 7.06215 9.65546 7.34455 9.18731L6.86213 8.89751ZM6.56211 12C6.56207 11.7272 6.58259 11.4549 6.62348 11.1852L6.06776 11.0999C5.97741 11.696 5.97741 12.3023 6.06776 12.8984L6.62348 12.8148C6.58265 12.5451 6.56214 12.2728 6.56211 12ZM15.1008 17.1362L14.8127 16.6555C14.3453 16.9381 13.8378 17.1485 13.3075 17.2794L13.4421 17.8249C14.0266 17.6802 14.5858 17.448 15.1008 17.1362ZM17.4379 12C17.4379 12.2728 17.4174 12.5451 17.3765 12.8148L17.9322 12.8984C18.0226 12.3023 18.0226 11.696 17.9322 11.0999L17.3765 11.1852C17.4174 11.4549 17.4379 11.7272 17.4379 12ZM17.8248 13.4387L17.2794 13.3041C17.1485 13.8355 16.9381 14.3441 16.6554 14.8127L17.1379 15.1025C17.4499 14.586 17.6816 14.025 17.8248 13.4387ZM12.8148 17.3765C12.2747 17.4584 11.7253 17.4584 11.1852 17.3765L11.1016 17.9322C11.6971 18.0226 12.3029 18.0226 12.8984 17.9322L12.8148 17.3765ZM16.3776 15.2252C16.0536 15.6646 15.6651 16.0525 15.2252 16.3759L15.5593 16.8293C16.0438 16.4727 16.4724 16.0458 16.831 15.5628L16.3776 15.2252ZM15.2252 7.62242C15.6651 7.9464 16.0536 8.33489 16.3776 8.77478L16.831 8.43725C16.4737 7.95378 16.0462 7.52632 15.5628 7.16898L15.2252 7.62242ZM7.62242 8.77478C7.94639 8.33489 8.33488 7.9464 8.77477 7.62242L8.43725 7.16898C7.95377 7.52632 7.52631 7.95378 7.16897 8.43725L7.62242 8.77478ZM17.1379 8.89751L16.6554 9.18731C16.9381 9.65472 17.1485 10.1622 17.2794 10.6925L17.8248 10.5579C17.6813 9.97281 17.4496 9.41298 17.1379 8.89751ZM11.1852 6.62349C11.7253 6.54165 12.2747 6.54165 12.8148 6.62349L12.8984 6.06777C12.3029 5.97741 11.6971 5.97741 11.1016 6.06777L11.1852 6.62349ZM7.9105 16.9793L6.74963 17.2487L7.02067 16.0878L6.47347 15.9599L6.20243 17.1208C6.18547 17.1928 6.18287 17.2674 6.19477 17.3404C6.20667 17.4134 6.23285 17.4833 6.27179 17.5461C6.31074 17.609 6.3617 17.6636 6.42175 17.7067C6.48181 17.7498 6.54978 17.7807 6.62178 17.7976C6.70598 17.8163 6.79327 17.8163 6.87748 17.7976L8.03835 17.5299L7.9105 16.9793ZM6.58939 15.4588L7.13829 15.5849L7.3258 14.7803C7.05197 14.321 6.84802 13.8235 6.72065 13.3041L6.17515 13.4387C6.29785 13.9359 6.48345 14.4154 6.72747 14.8656L6.58939 15.4588ZM9.21457 16.6759L8.40997 16.8634L8.53782 17.4123L9.12934 17.2742C9.57919 17.519 10.0588 17.7046 10.5561 17.8266L10.6908 17.2811C10.1731 17.152 9.67729 16.9469 9.21969 16.6725L9.21457 16.6759ZM12 7.12466C9.30663 7.12636 7.12636 9.31004 7.12636 12.0017C7.12784 12.9185 7.38717 13.8164 7.87471 14.5928L7.40592 16.5941L9.4055 16.1253C11.6846 17.5589 14.6951 16.8754 16.1287 14.5979C17.5623 12.3205 16.8805 9.31004 14.603 7.87471C13.8234 7.38442 12.921 7.12441 12 7.12466Z" fill="white"/>
</g>
<defs>
<clipPath id="clip0_1015_12020">
<rect x="2" y="2" width="20" height="20" rx="10" fill="white"/>
</clipPath>
</defs>
</svg>
