<svg width="24" height="24" viewBox="0 0 24 24" fill="none" xmlns="http://www.w3.org/2000/svg">
<path d="M7.2758 19.3668L7.60275 19.529C8.96522 20.3398 10.4911 20.7182 12.017 20.7182C16.8126 20.7182 20.7363 16.8263 20.7363 12.0695C20.7363 9.79928 19.8098 7.58305 18.175 5.96141C16.5401 4.33977 14.3602 3.42088 12.017 3.42088C7.22134 3.42088 3.29758 7.31277 3.35211 12.1236C3.35211 13.7452 3.84257 15.3128 4.65998 16.6641L4.87794 16.9885L4.00608 20.1777L7.2758 19.3668Z" fill="#25D366"/>
<path d="M19.1117 4.91891C17.2588 3.02706 14.6975 2 12.0817 2C6.52321 2 2.05453 6.48647 2.10898 11.9459C2.10898 13.6757 2.59944 15.3514 3.41693 16.8649L2 22L7.28609 20.6486C8.75747 21.4595 10.3923 21.8379 12.0273 21.8379C17.5313 21.8379 22 17.3513 22 11.892C22 9.24327 20.9645 6.75676 19.1117 4.91891ZM12.0817 20.1622C10.6103 20.1622 9.13895 19.7839 7.88553 19.0272L7.55859 18.865L4.39785 19.6757L5.21526 16.5947L4.9973 16.2703C2.59944 12.4326 3.74388 7.35134 7.66757 4.97292C11.5913 2.59459 16.6594 3.72974 19.0572 7.62163C21.455 11.5135 20.3106 16.5406 16.387 18.919C15.1335 19.7298 13.6076 20.1622 12.0817 20.1622ZM16.8773 14.1623L16.2779 13.892C16.2779 13.892 15.406 13.5136 14.861 13.2433C14.8065 13.2433 14.7521 13.1892 14.6975 13.1892C14.534 13.1892 14.425 13.2433 14.3161 13.2974C14.3161 13.2974 14.2616 13.3514 13.4986 14.2163C13.4441 14.3244 13.3351 14.3785 13.2262 14.3785H13.1716C13.1172 14.3785 13.0082 14.3244 12.9537 14.2704L12.6812 14.1623C12.0817 13.892 11.5368 13.5676 11.1008 13.1352C10.9918 13.0271 10.8283 12.919 10.7193 12.8109C10.3378 12.4326 9.95636 12.0001 9.68394 11.5136L9.62941 11.4055C9.57496 11.3514 9.57496 11.2974 9.52043 11.1893C9.52043 11.0812 9.52043 10.9731 9.57496 10.919C9.57496 10.919 9.79293 10.6487 9.95636 10.4866C10.0654 10.3784 10.1199 10.2163 10.2289 10.1082C10.3378 9.94604 10.3924 9.72984 10.3378 9.56765C10.2834 9.29736 9.62941 7.83791 9.46598 7.51361C9.35692 7.35142 9.24801 7.29741 9.0845 7.24332H8.48506C8.37599 7.24332 8.26709 7.29741 8.15803 7.29741L8.1035 7.35142C7.99452 7.40551 7.88553 7.51361 7.77655 7.56762C7.66757 7.67579 7.61304 7.78382 7.50406 7.89199C7.12258 8.37848 6.90461 8.97306 6.90461 9.56765C6.90461 10 7.01359 10.4325 7.17711 10.8109L7.23164 10.9731C7.7221 12.0001 8.37599 12.919 9.24801 13.7298L9.46598 13.946C9.62941 14.1082 9.79293 14.2163 9.90191 14.3784C11.0463 15.3515 12.3542 16.0541 13.8256 16.4325C13.9891 16.4865 14.2071 16.4865 14.3706 16.5406H14.9155C15.188 16.5406 15.5149 16.4325 15.733 16.3244C15.8964 16.2163 16.0054 16.2163 16.1144 16.1082L16.2235 16.0001C16.3324 15.892 16.4414 15.838 16.5504 15.7299C16.6594 15.6218 16.7684 15.5137 16.8229 15.4055C16.9319 15.1893 16.9863 14.919 17.0409 14.6488V14.2704C17.0409 14.2704 16.9863 14.2163 16.8773 14.1623Z" fill="white"/>
</svg>
